# xmcd CD database file
#
# Track frame offsets:
#	150
#	11799
#	26755
#	41112
#	60312
#	74225
#	88427
#	103090
#	117231
#	132635
#	146276
#	160107
#	174834
#	188853
#	204089
#	219186
#	234463
#	248188
#	262786
#	277439
#
# Disc length: 3909 seconds
#
# Revision: 2
# Processed by: cddbd v1.5.2PL0 Copyright (c) Steve Scherf et al.
# Submitted via: CDex 1.77
#
DISCID=290f4314
DTITLE=Frank Sinatra - CD 2
DYEAR=1900
DGENRE=Jazz
TTITLE0=That Old Black Magic
TTITLE1=Embraceable You
TTITLE2=These Foolish Things
TTITLE3=Stormy Weather
TTITLE4=Night And Day
TTITLE5=September Song
TTITLE6=A Lovely Way To Spend An Evening
TTITLE7=They Say It's Wonderful
TTITLE8=Someone To Watch Over Me
TTITLE9=Try A Little Tenderness
TTITLE10=You Got To My Head
TTITLE11=Stella By Starlight
TTITLE12=If I Loved You
TTITLE13=Nancy With The Laughing Face
TTITLE14=My Romance
TTITLE15=Polkadots And Moonbeams
TTITLE16=You'll Never Know
TTITLE17=Full Moon And Empty Arms
TTITLE18=Stardust
TTITLE19=You'll Never Walk Alone
EXTD=
EXTT0=
EXTT1=
EXTT2=
EXTT3=
EXTT4=
EXTT5=
EXTT6=
EXTT7=
EXTT8=
EXTT9=
EXTT10=
EXTT11=
EXTT12=
EXTT13=
EXTT14=
EXTT15=
EXTT16=
EXTT17=
EXTT18=
EXTT19=
PLAYORDER=
